<svg width="83" height="83" viewBox="0 0 83 83" fill="none" xmlns="http://www.w3.org/2000/svg">
<rect y="1" width="82" height="82" fill="#D9D9D9"/>
<path d="M53.3998 25.8839H53.1582C52.0243 25.8839 50.9743 26.5271 50.349 27.604C50.1193 27.9953 49.5178 28.045 49.2318 27.6953C48.2803 26.5271 47.0166 25.8839 45.6657 25.8839C44.3241 25.8839 43.0608 26.5271 42.1082 27.6953C41.8479 28.0141 41.3158 28.0164 41.0541 27.6946C40.1014 26.5271 38.8381 25.8839 37.4965 25.8839C36.1549 25.8839 34.8916 26.5271 33.9389 27.6953C33.6533 28.048 33.0519 27.9995 32.8222 27.604C32.1958 26.5271 31.1458 25.8839 30.0123 25.8839H29.7427C27.9943 25.8839 26.5714 27.3186 26.5714 29.0815V55.6862C26.5714 57.4491 27.9943 58.8838 29.7427 58.8838H30.0123C31.1454 58.8838 32.1954 58.2406 32.8229 57.1622C33.0493 56.7701 33.6518 56.719 33.9389 57.0728C34.8916 58.2402 36.1549 58.8835 37.4965 58.8835C38.8381 58.8835 40.1014 58.2402 41.0541 57.072C41.3158 56.7517 41.8479 56.7524 42.1082 57.0728C43.0608 58.2402 44.3241 58.8835 45.675 58.8835C47.0166 58.8835 48.2806 58.2402 49.2315 57.0735C49.5197 56.7224 50.1223 56.7727 50.3486 57.1622C50.9746 58.2406 52.0246 58.8838 53.1585 58.8838H53.4002C55.1485 58.8838 56.5714 57.4491 56.5714 55.6862V29.0819C56.5714 27.3186 55.1482 25.8839 53.3998 25.8839ZM53.8439 55.6862C53.8439 55.9332 53.6448 56.1339 53.3998 56.1339H53.1582C52.9292 56.1339 52.7514 55.858 52.7021 55.7726C52.0921 54.7233 50.9642 54.0713 49.7591 54.0713C48.7363 54.0713 47.7769 54.5285 47.1251 55.3267C46.8794 55.6283 46.3641 56.1336 45.6657 56.1336C44.9766 56.1336 44.4606 55.6275 44.2149 55.3267C42.9158 53.7307 40.2479 53.7303 38.9473 55.326C38.7016 55.6275 38.1856 56.1336 37.4965 56.1336C36.8074 56.1336 36.2914 55.6275 36.0457 55.3267C35.3958 54.5285 34.4356 54.0713 33.4125 54.0713C32.2058 54.0713 31.0779 54.724 30.4694 55.7726C30.4202 55.8572 30.2416 56.1339 30.0126 56.1339H29.743C29.4981 56.1339 29.299 55.9332 29.299 55.6862V29.0819C29.299 28.8349 29.4981 28.6341 29.743 28.6341H30.0126C30.2416 28.6341 30.4202 28.9109 30.4686 28.9939C31.0779 30.0441 32.2058 30.6967 33.4125 30.6967C34.436 30.6967 35.3961 30.2396 36.0457 29.4417C36.2914 29.1402 36.8074 28.6341 37.4965 28.6341C38.1856 28.6341 38.7016 29.1402 38.9473 29.441C40.2479 31.0381 42.9158 31.0363 44.2149 29.4417C44.4606 29.1402 44.9766 28.6341 45.675 28.6341C46.3641 28.6341 46.8794 29.1398 47.1259 29.4425C47.7769 30.2396 48.7367 30.6967 49.7591 30.6967C50.9642 30.6967 52.0921 30.0448 52.7029 28.9939C52.7514 28.9101 52.9292 28.6341 53.1582 28.6341H53.3998C53.6448 28.6341 53.8439 28.8349 53.8439 29.0819V55.6862Z" fill="#F0F0F0"/>
<path d="M32.0258 36.8745H51.1167V39.6244H32.0258V36.8745ZM32.0224 43.7451H45.6586V46.504H32.0224V43.7451Z" fill="#F0F0F0"/>
</svg>
