<svg width="256" height="256" viewBox="0 0 256 256" fill="none" xmlns="http://www.w3.org/2000/svg">
<rect width="256" height="256" fill="#4693C7"/>
<path d="M103.793 153H93.1055L93.1758 147.48H103.793C107.449 147.48 110.496 146.719 112.934 145.195C115.371 143.648 117.199 141.492 118.418 138.727C119.66 135.938 120.281 132.68 120.281 128.953V125.824C120.281 122.895 119.93 120.293 119.227 118.02C118.523 115.723 117.492 113.789 116.133 112.219C114.773 110.625 113.109 109.418 111.141 108.598C109.195 107.777 106.957 107.367 104.426 107.367H92.8945V101.812H104.426C107.777 101.812 110.836 102.375 113.602 103.5C116.367 104.602 118.746 106.207 120.738 108.316C122.754 110.402 124.301 112.934 125.379 115.91C126.457 118.863 126.996 122.191 126.996 125.895V128.953C126.996 132.656 126.457 135.996 125.379 138.973C124.301 141.926 122.742 144.445 120.703 146.531C118.688 148.617 116.25 150.223 113.391 151.348C110.555 152.449 107.355 153 103.793 153ZM96.7266 101.812V153H89.9414V101.812H96.7266ZM169.711 147.48V153H142.605V147.48H169.711ZM143.977 101.812V153H137.191V101.812H143.977ZM166.125 123.82V129.34H142.605V123.82H166.125ZM169.359 101.812V107.367H142.605V101.812H169.359Z" fill="white"/>
</svg>
