<svg width="256" height="256" viewBox="0 0 256 256" fill="none" xmlns="http://www.w3.org/2000/svg">
<rect width="256" height="256" fill="#6C6C6C"/>
<path d="M117.223 140.062C117.223 138.867 117.035 137.812 116.66 136.898C116.309 135.961 115.676 135.117 114.762 134.367C113.871 133.617 112.629 132.902 111.035 132.223C109.465 131.543 107.473 130.852 105.059 130.148C102.527 129.398 100.242 128.566 98.2031 127.652C96.1641 126.715 94.418 125.648 92.9648 124.453C91.5117 123.258 90.3984 121.887 89.625 120.34C88.8516 118.793 88.4648 117.023 88.4648 115.031C88.4648 113.039 88.875 111.199 89.6953 109.512C90.5156 107.824 91.6875 106.359 93.2109 105.117C94.7578 103.852 96.5977 102.867 98.7305 102.164C100.863 101.461 103.242 101.109 105.867 101.109C109.711 101.109 112.969 101.848 115.641 103.324C118.336 104.777 120.387 106.688 121.793 109.055C123.199 111.398 123.902 113.906 123.902 116.578H117.152C117.152 114.656 116.742 112.957 115.922 111.48C115.102 109.98 113.859 108.809 112.195 107.965C110.531 107.098 108.422 106.664 105.867 106.664C103.453 106.664 101.461 107.027 99.8906 107.754C98.3203 108.48 97.1484 109.465 96.375 110.707C95.625 111.949 95.25 113.367 95.25 114.961C95.25 116.039 95.4727 117.023 95.918 117.914C96.3867 118.781 97.1016 119.59 98.0625 120.34C99.0469 121.09 100.289 121.781 101.789 122.414C103.312 123.047 105.129 123.656 107.238 124.242C110.145 125.062 112.652 125.977 114.762 126.984C116.871 127.992 118.605 129.129 119.965 130.395C121.348 131.637 122.367 133.055 123.023 134.648C123.703 136.219 124.043 138 124.043 139.992C124.043 142.078 123.621 143.965 122.777 145.652C121.934 147.34 120.727 148.781 119.156 149.977C117.586 151.172 115.699 152.098 113.496 152.754C111.316 153.387 108.879 153.703 106.184 153.703C103.816 153.703 101.484 153.375 99.1875 152.719C96.9141 152.062 94.8398 151.078 92.9648 149.766C91.1133 148.453 89.625 146.836 88.5 144.914C87.3984 142.969 86.8477 140.719 86.8477 138.164H93.5977C93.5977 139.922 93.9375 141.434 94.6172 142.699C95.2969 143.941 96.2227 144.973 97.3945 145.793C98.5898 146.613 99.9375 147.223 101.438 147.621C102.961 147.996 104.543 148.184 106.184 148.184C108.551 148.184 110.555 147.855 112.195 147.199C113.836 146.543 115.078 145.605 115.922 144.387C116.789 143.168 117.223 141.727 117.223 140.062ZM159.973 140.062C159.973 138.867 159.785 137.812 159.41 136.898C159.059 135.961 158.426 135.117 157.512 134.367C156.621 133.617 155.379 132.902 153.785 132.223C152.215 131.543 150.223 130.852 147.809 130.148C145.277 129.398 142.992 128.566 140.953 127.652C138.914 126.715 137.168 125.648 135.715 124.453C134.262 123.258 133.148 121.887 132.375 120.34C131.602 118.793 131.215 117.023 131.215 115.031C131.215 113.039 131.625 111.199 132.445 109.512C133.266 107.824 134.438 106.359 135.961 105.117C137.508 103.852 139.348 102.867 141.48 102.164C143.613 101.461 145.992 101.109 148.617 101.109C152.461 101.109 155.719 101.848 158.391 103.324C161.086 104.777 163.137 106.688 164.543 109.055C165.949 111.398 166.652 113.906 166.652 116.578H159.902C159.902 114.656 159.492 112.957 158.672 111.48C157.852 109.98 156.609 108.809 154.945 107.965C153.281 107.098 151.172 106.664 148.617 106.664C146.203 106.664 144.211 107.027 142.641 107.754C141.07 108.48 139.898 109.465 139.125 110.707C138.375 111.949 138 113.367 138 114.961C138 116.039 138.223 117.023 138.668 117.914C139.137 118.781 139.852 119.59 140.812 120.34C141.797 121.09 143.039 121.781 144.539 122.414C146.062 123.047 147.879 123.656 149.988 124.242C152.895 125.062 155.402 125.977 157.512 126.984C159.621 127.992 161.355 129.129 162.715 130.395C164.098 131.637 165.117 133.055 165.773 134.648C166.453 136.219 166.793 138 166.793 139.992C166.793 142.078 166.371 143.965 165.527 145.652C164.684 147.34 163.477 148.781 161.906 149.977C160.336 151.172 158.449 152.098 156.246 152.754C154.066 153.387 151.629 153.703 148.934 153.703C146.566 153.703 144.234 153.375 141.938 152.719C139.664 152.062 137.59 151.078 135.715 149.766C133.863 148.453 132.375 146.836 131.25 144.914C130.148 142.969 129.598 140.719 129.598 138.164H136.348C136.348 139.922 136.688 141.434 137.367 142.699C138.047 143.941 138.973 144.973 140.145 145.793C141.34 146.613 142.688 147.223 144.188 147.621C145.711 147.996 147.293 148.184 148.934 148.184C151.301 148.184 153.305 147.855 154.945 147.199C156.586 146.543 157.828 145.605 158.672 144.387C159.539 143.168 159.973 141.727 159.973 140.062Z" fill="white"/>
</svg>
