<svg width="256" height="256" viewBox="0 0 256 256" fill="none" xmlns="http://www.w3.org/2000/svg">
<rect width="256" height="256" fill="#8A716A"/>
<path d="M108.891 106.348L91.9453 153H85.0195L104.531 101.812H108.996L108.891 106.348ZM123.094 153L106.113 106.348L106.008 101.812H110.473L130.055 153H123.094ZM122.215 134.051V139.605H93.457V134.051H122.215ZM150.762 153H140.074L140.145 147.48H150.762C154.418 147.48 157.465 146.719 159.902 145.195C162.34 143.648 164.168 141.492 165.387 138.727C166.629 135.938 167.25 132.68 167.25 128.953V125.824C167.25 122.895 166.898 120.293 166.195 118.02C165.492 115.723 164.461 113.789 163.102 112.219C161.742 110.625 160.078 109.418 158.109 108.598C156.164 107.777 153.926 107.367 151.395 107.367H139.863V101.812H151.395C154.746 101.812 157.805 102.375 160.57 103.5C163.336 104.602 165.715 106.207 167.707 108.316C169.723 110.402 171.27 112.934 172.348 115.91C173.426 118.863 173.965 122.191 173.965 125.895V128.953C173.965 132.656 173.426 135.996 172.348 138.973C171.27 141.926 169.711 144.445 167.672 146.531C165.656 148.617 163.219 150.223 160.359 151.348C157.523 152.449 154.324 153 150.762 153ZM143.695 101.812V153H136.91V101.812H143.695Z" fill="white"/>
</svg>
