<svg width="43" height="42" viewBox="0 0 43 42" fill="none" xmlns="http://www.w3.org/2000/svg">
<path d="M15.8388 29C17.5686 30.2606 19.6723 31 21.9411 31C24.21 31 26.3137 30.2606 28.0435 29M41.5416 22.9158L40.9747 26.7904C39.9831 33.5654 39.4874 36.9528 37.0973 38.9764C34.707 41 31.2016 41 24.1911 41H19.6912C12.6806 41 9.17522 41 6.78501 38.9764C4.39479 36.9528 3.89906 33.5654 2.90761 26.7904L2.34056 22.9158C1.56874 17.6416 1.18282 15.0046 2.28218 12.7499C3.38154 10.4952 5.7215 9.12468 10.4014 6.38362L13.2183 4.73374C17.4682 2.24458 19.5931 1 21.9411 1C24.2891 1 26.4141 2.24458 30.6638 4.73374L33.4808 6.38362C38.1607 9.12468 40.5008 10.4952 41.6 12.7499" stroke="#6C6C6C" stroke-width="2" stroke-linecap="round"/>
</svg>
