<svg width="41" height="40" viewBox="0 0 41 40" fill="none" xmlns="http://www.w3.org/2000/svg">
<path d="M14.8388 28C16.5686 29.2606 18.6723 30 20.9411 30C23.21 30 25.3137 29.2606 27.0435 28" fill="#4693C7"/>
<path d="M40.5416 21.9158L39.9747 25.7904C38.9831 32.5654 38.4874 35.9528 36.0973 37.9764C33.707 40 30.2016 40 23.1911 40H18.6912C11.6806 40 8.17522 40 5.78501 37.9764C3.39479 35.9528 2.89906 32.5654 1.90761 25.7904L1.34056 21.9158C0.568735 16.6416 0.182824 14.0046 1.28218 11.7499C2.38154 9.4952 4.7215 8.12468 9.40142 5.38362L12.2183 3.73374C16.4682 1.24458 18.5931 0 20.9411 0C23.2891 0 25.4141 1.24458 29.6638 3.73374L32.4808 5.38362C37.1607 8.12468 39.5008 9.4952 40.6 11.7499" fill="#4693C7"/>
</svg>
